<?xml version="1.0" encoding="UTF-8"?><svg id="Layer_1" xmlns="http://www.w3.org/2000/svg" viewBox="0 0 800 800"><defs><style>.cls-1{fill:#2b2b2d;}.cls-2{fill:#fff;}.cls-3{fill:#4a4a4c;}.cls-4{fill:#bf1c24;}.cls-5{fill:#9f1c24;}.cls-6{fill:#5a5a5a;}.cls-7{fill:#373737;}.cls-8{fill:#ed1c24;}.cls-9{fill:#1a1a1a;}.cls-10{fill:#ff2624;}</style></defs><path class="cls-8" d="M159.28,694.91s260.22-30.77,520.7-150.86c0,0,9-77.89,44.67-128.68,0,0,13.45-91.27-18.3-172.59,18.84-26.72,28.45-44.94-3.47-67.42C531.43,54.6,231.7,23.53,139.82,250.4l-53.25,253.9c-12.13,30.29-7.25,147.31,72.71,190.61Z"/><path class="cls-1" d="M82.85,519.99c31.04,11.82,86.53,11.95,128.95,6.79,157.61-19.19,275.44-29.7,359.72-71.66-19.05,5.5-137.22,30.04-228.78,39.15-96.17,9.57-171.97,15.35-205.75,16.15-33.78,.8-50.43-6.12-50.43-6.12l-3.72,15.69Z"/><path class="cls-4" d="M706.36,242.78s-46.07-23.93-114.11,2.1l-61.47,33.89,48.19-4.38c13.12-1.19,21.48,4.5,22.9,14.37,5.52,38.46,14.53,134.06-19.52,160.72l-203.58,94.08c-46.42,51.09-98.86,88.01-140.85,112.59l-78.63,38.76s260.22-30.77,520.7-150.86c0,0,9-77.89,44.67-128.68,0,0,13.45-91.27-18.3-172.59Z"/><path class="cls-5" d="M724.66,415.37l-81.92,94.23-9.55,55.1c15.56-6.57,31.18-13.44,46.8-20.64,0,0,9-77.89,44.67-128.68Z"/><path class="cls-10" d="M98.84,576.3s108-46.1,163.37-55.57c0,0-108.18,21.66-179.68-.83-2.44,13.85-1.46,35.31,16.31,56.4Z"/><path class="cls-5" d="M709.31,202.17c-69.98-1.62-117.07,42.71-117.07,42.71,0,0,66.33-25.68,114.11-2.1,10.7-15.18,18.41-27.62,17.24-39.65-4.86-.54-9.62-.85-14.28-.96Z"/><path class="cls-5" d="M192.83,166.45h0c.82-24.73,15.63-46.72,37.13-52.77,9.04-2.54,22.6-2.48,37.04-1.17-30.05,10.38-74.17,53.94-74.17,53.94Z"/><path class="cls-5" d="M310.16,170.33c.82-24.73,15.63-46.72,37.13-52.77,29.33-8.25,106.38,10.99,106.38,10.99-85.48,8.02-143.51,41.78-143.51,41.78Z"/><path class="cls-3" d="M530.77,278.77l48.19-4.38c13.12-1.19,21.48,4.5,22.89,14.37,5.52,38.46,14.53,134.06-19.52,160.72l-51.57-170.71Z"/><path class="cls-1" d="M687.28,565.26c-248.46,130.07-504.72,160.29-504.72,160.29-18.72-9.25-23.28-30.64-23.28-30.64,0,0,260.22-30.77,520.7-150.86,0,0,12.84,6.4,7.29,21.22Z"/><path class="cls-9" d="M129.65,252.45c107.35-17.94,292.46,35.36,401.12,26.32,16.17-1.34,19.95,8.29,23.56,22.44l31.79,124.55c4.68,18.34-1.92,24.47-12.41,28.67-9.18,3.67-134.79,30.28-230.97,39.85-96.17,9.57-171.97,15.35-205.75,16.15-33.78,.8-50.43-6.12-50.43-6.12,0,0,10.52-103.85,43.08-251.85Z"/><path class="cls-2" d="M323.97,261.51l-41.33,238.48c17.01-1.55,34.93-3.25,53.74-5.1l39.23-226.39c-17.1-2.28-34.37-4.66-51.64-6.99Z"/><path class="cls-7" d="M197.22,248.99c-24.58-.81-47.44,.09-67.57,3.46-32.56,148.01-43.08,251.85-43.08,251.85,0,0,16.65,6.92,50.43,6.12,18.91-.45,51.35-2.51,92.81-5.87l43.24-249.51c-26.27-3.02-51.87-5.31-75.82-6.06Z"/><path class="cls-6" d="M197.22,248.99c-24.58-.81-47.44,.09-67.57,3.46-32.56,148.01-43.08,251.85-43.08,251.85,0,0,16.65,6.92,50.43,6.12,4.71-.11,10.32-.33,16.6-.63l43.62-260.8Z"/><polygon class="cls-2" points="394.92 271.04 362.89 455.88 387.9 439 416.55 273.69 394.92 271.04"/><path class="cls-9" d="M197.39,244.47c41.33,1.28,87.16,7.14,132.99,13.36,73.33,9.96,146.68,20.9,199.96,16.47,9.1-.76,16.29,1.99,20.63,7.08,4.34,5.09,6.16,11.6,7.99,18.8l31.79,124.55c2.49,9.75,2.18,17.09-.91,22.74-3.09,5.65-8.57,8.82-14.25,11.09-1.97,.79-4.7,1.48-9.27,2.6s-10.63,2.52-17.94,4.12c-14.63,3.2-34.23,7.22-56.56,11.4-44.66,8.37-100.21,17.44-148.57,22.05-83.9,8.01-179.55,30.3-257.92,9.88-2.23-.58-3.7-2.6-3.48-4.77,0,0,10.55-104.11,43.16-252.33,.39-1.79,1.9-3.17,3.81-3.49,20.6-3.44,43.78-4.32,68.58-3.56Zm-.34,9.04c-23.11-.72-44.47,.09-63.4,2.97-30.27,138.33-40.83,234.29-41.9,244.37,74.07,17.75,167.06-3.08,250.5-11.04,47.85-4.57,103.21-13.59,147.68-21.93,22.24-4.17,41.76-8.17,56.27-11.34,7.25-1.59,13.25-2.97,17.69-4.06,4.44-1.09,7.64-2.05,7.96-2.18,4.81-1.93,7.87-3.92,9.54-6.97,1.67-3.05,2.32-7.94,.12-16.53l-31.8-124.55c-1.77-6.95-3.65-12.33-6.15-15.26-2.5-2.93-5.29-4.33-12.36-3.74-55.38,4.61-128.92-6.58-202.15-16.53-45.77-6.22-91.42-11.93-132.01-13.2Z"/><path class="cls-9" d="M582.66,444.97c4.73,.27,6.2,6.19,2.08,8.39-86.33,47.5-207.94,57.87-372.32,77.88-42.95,5.23-98.48,5.43-131.34-7.08-6.04-2.18-2.42-10.7,3.53-8.32,29.22,11.12,84.67,11.6,126.56,6.5,164.54-20.03,285.27-30.8,368.76-76.74,.82-.46,1.77-.68,2.72-.63Z"/><path class="cls-9" d="M432.55,77.96c97.05,4.43,197.36,40.41,273.17,93.8,16.64,11.72,23.56,23.68,22.68,36.03-.84,11.73-8.02,22.93-16.84,35.54,31.26,82.19,17.81,172.67,17.81,172.67-.1,.66-.35,1.3-.75,1.85-34.64,49.32-43.91,126.69-43.91,126.69-.63,6.02-10.22,4.99-9.45-1.01,0,0,8.69-77.31,44.76-129.55,.31-2.15,12.69-90.73-18.13-169.67-.52-1.34-.34-2.84,.5-4.03,9.35-13.26,15.87-24.07,16.52-33.13,.65-9.06-3.58-17.45-18.86-28.21-84.82-59.74-201.78-97.38-308.27-91.95-106.49,5.43-202.22,53.16-247.52,165.02-2.18,5.74-11.31,2.42-8.88-3.23,46.58-115.01,146.64-165.18,255.85-170.75,13.65-.7,27.45-.71,41.31-.07Z"/><path class="cls-9" d="M81.86,532.07c2.62,.1,4.68,2.18,4.59,4.65,0,0-1.57,112.72,75.19,154.29,5.62,2.95,.83,10.87-4.71,7.78-83.16-45.04-79.99-162.28-79.99-162.28,.01-2.53,2.24-4.54,4.92-4.44Z"/><path class="cls-9" d="M680.19,539.56c.7,.03,1.39,.2,2.01,.51,0,0,4.23,2.1,7.43,6.49,3.2,4.39,5.36,11.59,2.14,20.21-.39,1.03-1.16,1.89-2.17,2.42-249.39,130.55-506.43,160.81-506.43,160.81-.96,.11-1.94-.05-2.8-.48-21.12-10.44-25.75-33.74-25.75-33.74-.54-2.55,1.32-5,4.05-5.32,0,0,259.56-30.73,519.21-150.44,.71-.33,1.5-.48,2.3-.45Zm-.73,9.67c-252.3,115.74-498.54,147.38-513.98,149.29,2.22,5.97,7.42,16.45,18.12,22.33,4.7-.56,254.94-31.04,499.6-158.63,1.49-5.17,.26-8.31-1.4-10.59-.8-1.09-1.62-1.81-2.35-2.39Z"/><path class="cls-9" d="M582.53,444.96c4.99,.15,6.42,6.54,1.91,8.54l-202.75,93.7c-46.66,51.15-99.17,88.12-141.26,112.76-5.38,3.15-10.41-4.48-5.03-7.63,41.68-24.4,93.74-61.07,139.75-111.7,.42-.46,.93-.84,1.51-1.1l203.58-94.08c.71-.34,1.5-.51,2.29-.48Z"/><path class="cls-9" d="M709.42,197.69c4.81,.11,9.72,.43,14.73,.99,6.36,.65,5.27,9.67-1.08,8.91-47.45-5.3-85.59,12.08-107.39,25.7,24.26-5.57,61.7-9.87,92.87,5.52,5.87,2.7,1.32,10.95-4.38,7.95-44.92-22.16-110.11,2.28-110.11,2.28-4.8,1.85-8.85-3.88-5.18-7.33,0,0,48.42-45.68,120.53-44.01Z"/><path class="cls-9" d="M376.69,111.2c11.61,.68,24.02,2.43,35.6,4.34,23.16,3.82,42.59,8.68,42.59,8.68,5.11,1.29,4.54,8.3-.71,8.8-84.39,7.92-141.49,41.14-141.49,41.14-3.22,1.87-7.37-.4-7.25-3.98,.87-26.34,16.56-50.18,40.51-56.92,8.36-2.35,19.16-2.74,30.77-2.05Zm-.79,9.18c-11.09-.61-20.92-.3-27.23,1.47-16.77,4.72-29.54,20.88-32.9,40.44,15.11-7.7,54.82-25.64,111.44-34.74-5.46-1.08-10.15-2.13-16.53-3.18-11.35-1.87-23.7-3.39-34.79-4Z"/><path class="cls-9" d="M246.36,107.12c6.59-.14,13.73,.26,21.08,.92,6.51,.41,5.6,9.7-.87,8.93-14.18-1.29-27.46-1.19-35.23,1-19.06,5.37-32.99,25.5-33.75,48.63-.2,5.98-9.7,5.67-9.5-.31,.87-26.34,16.57-50.18,40.51-56.92,5.15-1.45,11.18-2.11,17.77-2.25Z"/><path class="cls-9" d="M578.49,269.92c7.37-.67,13.94,.56,18.98,3.8,5.04,3.24,8.24,8.47,9.1,14.45,2.78,19.4,6.45,53.08,5.12,85.56-1.33,32.48-6.99,64.08-26.31,79.2-4.87,3.85-10.99-3.11-6.08-6.92,14.73-11.53,21.6-41.07,22.89-72.67,1.3-31.6-2.3-64.95-5.04-84.01-.56-3.89-2.24-6.43-5.01-8.21-2.77-1.78-6.95-2.8-12.7-2.28l-48.19,4.38c-6.36,.64-7.32-8.41-.95-8.93l48.19-4.38Z"/><path class="cls-9" d="M86.8,499.76c3.4,.15,5.55,3.51,4.1,6.41,0,0-15.39,31.85,9.7,64.5,4.88-2.07,26.93-11.36,57.4-22.77,34.03-12.75,74.87-26.71,103.35-31.59,6.26-1.11,8,7.79,1.73,8.83-26.89,4.6-67.74,18.43-101.55,31.09-33.81,12.67-60.72,24.16-60.72,24.16-1.98,.85-4.33,.31-5.69-1.31-31.46-37.35-12.88-76.66-12.88-76.66,.79-1.69,2.59-2.75,4.55-2.67Z"/><path class="cls-9" d="M724.7,410.83c4.04,.02,6.24,4.48,3.63,7.39l-81.11,93.3-9.34,53.92c-.95,6-10.51,4.49-9.38-1.48l9.55-55.1c.13-.78,.48-1.5,1.01-2.11l81.92-94.23c.9-1.07,2.27-1.69,3.73-1.68Z"/><path class="cls-9" d="M149.22,551.68c2.8,.21,4.8,2.66,4.31,5.27l-13.18,76.06c-.2,1.17-.89,2.22-1.91,2.91l-24.29,16.4c-5.15,3.47-10.7-3.83-5.55-7.31l22.69-15.32,12.86-74.23c.37-2.33,2.58-3.98,5.07-3.79Z"/><path class="cls-2" d="M217.24,260.67c13.03,.66,26.84,1.73,40.53,3.4,6.43,.66,5.21,9.81-1.19,8.9-53.53-6.56-109.84-3.62-109.84-3.62-6.44,.45-7.02-8.74-.56-8.96,0,0,31.98-1.7,71.06,.28Z"/></svg>